<svg width="603" height="130" viewBox="0 0 603 130" fill="none" xmlns="http://www.w3.org/2000/svg">
<path d="M82.7087 78.9336H112.395C108.448 99.1818 94.3771 106.046 76.1881 106.046C45.9874 106.046 35.3485 83.7382 35.3485 64.6912C35.3485 45.6442 45.9874 23.3369 76.1881 23.3369C88.1997 23.3369 102.442 27.7983 107.418 43.5851H144.483C138.477 9.95249 106.389 0 72.413 0C26.0824 0 0 26.7688 0 64.6912C0 110.164 27.7983 129.382 72.413 129.382C93.6907 129.382 112.223 124.235 123.891 111.708L128.353 125.951H145.169V57.6558H82.7087V78.9336Z" fill="white"/>
<path d="M243.894 88.7145C243.894 104.158 226.906 111.537 211.634 111.537C200.309 111.537 192.587 106.904 192.587 98.667C192.587 90.4304 197.906 87.5133 208.545 86.6553L226.048 85.111C232.054 84.5962 238.231 83.9098 243.894 81.1643V88.7145ZM195.332 62.1173C199.622 49.4193 206.315 48.3897 219.184 48.3897C236.687 48.3897 242.864 51.9932 242.864 59.3718C242.864 66.7504 239.775 68.2947 230.509 68.9811L198.421 71.2118C180.061 72.413 160.327 77.2176 160.327 99.5249C160.327 120.974 177.143 129.382 201.167 129.382C214.723 129.382 233.941 126.465 244.237 116.17C244.409 119.43 245.267 122.69 246.296 125.951H276.497C274.438 121.317 273.065 115.483 273.065 107.418V61.7741C273.065 44.6146 263.799 30.5439 220.557 30.5439C195.847 30.5439 169.765 33.8042 166.161 62.1173H195.332Z" fill="white"/>
<path d="M302.787 33.9758H283.74V54.2239H302.787V100.726C302.787 117.371 305.532 128.01 334.189 128.01C340.881 128.01 352.206 126.98 357.869 126.294V106.046C353.064 106.389 348.431 106.732 343.112 106.732C335.218 106.732 332.988 104.33 332.988 97.1226V54.2239H357.354V33.9758H332.988V5.49103H302.787V33.9758Z" fill="white"/>
<path d="M481.99 67.9515C476.327 37.5792 449.043 30.5439 425.706 30.5439C389.328 30.5439 364.962 45.301 364.962 79.9632C364.962 114.625 388.47 129.382 423.133 129.382C453.162 129.382 476.498 122.004 481.99 89.4009H450.759C449.215 100.898 439.091 108.105 425.706 108.105C407.003 108.105 396.192 97.9806 396.192 79.9632C396.192 61.9457 407.003 51.8216 425.706 51.8216C437.89 51.8216 447.156 55.7683 450.759 67.9515H481.99Z" fill="white"/>
<path d="M496.44 125.951H526.64V81.5075C526.64 61.9457 538.48 54.9103 552.551 54.9103C566.107 54.9103 572.799 61.0877 572.799 73.7857V125.951H603V64.6912C603 37.5792 579.148 31.5734 563.533 31.5734C545.859 31.5734 531.445 39.6384 526.984 47.3601H526.64V1.37276H496.44V125.951Z" fill="white"/>
</svg>
