<svg width="543" height="39" viewBox="0 0 543 39" fill="none" xmlns="http://www.w3.org/2000/svg">
<rect y="0.503906" width="543" height="38" fill="#002AF5"/>
<path d="M5.02246 16.7944C5.02246 21.2644 6.82246 28.1044 18.3425 28.1044C29.8625 28.1044 31.6625 21.2644 31.6625 16.7944C31.6625 12.3244 29.8625 5.48438 18.3425 5.48438C6.82246 5.48438 5.02246 12.3244 5.02246 16.7944ZM11.2025 16.7944C11.2025 13.4644 13.0625 9.56437 18.3425 9.56437C23.6225 9.56437 25.4825 13.4644 25.4825 16.7944C25.4825 20.1244 23.6225 24.0244 18.3425 24.0244C13.0625 24.0244 11.2025 20.1244 11.2025 16.7944Z" fill="white"/>
<path d="M39.4125 19.5544C39.4125 16.4944 41.7225 14.9044 44.3625 14.9044C47.0325 14.9044 49.3425 16.4944 49.3425 19.5544C49.3425 22.6144 47.0325 24.2044 44.3625 24.2044C41.7225 24.2044 39.4125 22.6144 39.4125 19.5544ZM34.3125 33.4744H39.5925V25.7044H39.6525C40.6725 27.1444 42.8625 28.1044 45.8325 28.1044C50.9025 28.1044 54.8025 24.6844 54.8025 19.4644C54.8025 13.8244 50.6925 11.0044 45.4725 11.0044C43.2525 11.0044 41.4825 11.4544 39.4725 13.6144H39.4125V11.4244H34.3125V33.4744Z" fill="white"/>
<path d="M71.7621 22.7044C71.0121 24.0844 69.5121 24.8044 67.3821 24.8044C63.7822 24.8044 62.2221 22.4644 62.2221 20.9344V20.8744H77.7021V20.3944C77.7021 14.3344 74.3421 10.8244 67.3821 10.8244C61.0221 10.8244 56.7621 13.4044 56.7621 19.4644C56.7621 25.5244 61.0221 28.1044 67.3821 28.1044C72.2122 28.1044 75.8722 26.5144 77.4022 22.7044H71.7621ZM62.2221 17.7544V17.6944C62.2221 17.3044 63.0921 14.1244 67.2621 14.1244C71.1321 14.1244 72.2421 16.8244 72.2421 17.6944V17.7544H62.2221Z" fill="white"/>
<path d="M93.7465 27.5044H99.0265V16.7944C99.0265 12.0544 94.8565 11.0044 92.1265 11.0044C89.0365 11.0044 86.5165 12.4144 85.5565 13.7644H85.4965V11.4244H80.3965V27.5044H85.6765V19.7344C85.6765 16.3144 87.7465 15.0844 90.2065 15.0844C92.5765 15.0844 93.7465 16.1644 93.7465 18.3844V27.5044Z" fill="white"/>
<path d="M118.446 19.5544C118.446 16.4944 120.756 14.9044 123.426 14.9044C126.066 14.9044 128.376 16.4944 128.376 19.5544C128.376 22.6144 126.066 24.2044 123.426 24.2044C120.756 24.2044 118.446 22.6144 118.446 19.5544ZM128.376 27.5044H133.476V5.72438H128.196V13.4044H128.136C127.116 11.9644 124.926 11.0044 121.956 11.0044C116.886 11.0044 112.986 14.4244 112.986 19.6444C112.986 25.2544 116.946 28.1044 121.956 28.1044C124.356 28.1044 126.606 27.5644 128.316 25.4944H128.376V27.5044Z" fill="white"/>
<path d="M150.736 20.9944C150.736 23.6944 147.766 24.9844 145.096 24.9844C143.116 24.9844 141.766 24.1744 141.766 22.7344C141.766 21.2944 142.696 20.7844 144.556 20.6344L147.616 20.3644C148.666 20.2744 149.746 20.1544 150.736 19.6744V20.9944ZM142.246 16.3444C142.996 14.1244 144.166 13.9444 146.416 13.9444C149.476 13.9444 150.556 14.5744 150.556 15.8644C150.556 17.1544 150.016 17.4244 148.396 17.5444L142.786 17.9344C139.576 18.1444 136.126 18.9844 136.126 22.8844C136.126 26.6344 139.066 28.1044 143.266 28.1044C145.636 28.1044 148.996 27.5944 150.796 25.7944C150.826 26.3644 150.976 26.9344 151.156 27.5044H156.436C156.076 26.6944 155.836 25.6744 155.836 24.2644V16.2844C155.836 13.2844 154.216 10.8244 146.656 10.8244C142.336 10.8244 137.776 11.3944 137.146 16.3444H142.246Z" fill="white"/>
<path d="M159.322 27.5044H164.602V11.4244H159.322V27.5044ZM159.322 9.44437H164.602V5.72438H159.322V9.44437Z" fill="white"/>
<path d="M168.199 27.5044H173.479V5.72438H168.199V27.5044Z" fill="white"/>
<path d="M189.556 11.4244L185.116 22.0444L180.526 11.4244H174.796L182.356 26.9344L181.816 28.1044C181.216 29.2144 180.616 29.7544 179.326 29.7544C178.576 29.7544 177.796 29.6944 177.046 29.6344V33.3544C178.276 33.4144 179.536 33.4744 180.766 33.4744C183.706 33.4744 185.146 32.8444 186.406 30.1444L195.196 11.4244H189.556Z" fill="white"/>
<path d="M209.343 27.5044H214.623V14.9644H218.853V11.4244H214.623V10.4344C214.623 8.93438 215.313 8.78438 216.243 8.78438C217.143 8.78438 218.013 8.81437 218.913 8.84437V5.54437C217.623 5.51437 216.303 5.48438 215.583 5.48438C210.663 5.48438 209.343 6.29438 209.343 10.6144V11.4244H206.013V14.9644H209.343V27.5044Z" fill="white"/>
<path d="M220.406 27.5044H225.686V20.5744C225.686 17.4544 227.396 15.6244 230.996 15.6244C231.986 15.6244 232.946 15.8344 233.906 16.1044V11.1544C233.306 11.0344 232.586 11.0044 231.986 11.0044C228.986 11.0044 227.486 12.1144 225.566 14.5744H225.506V11.4244H220.406V27.5044Z" fill="white"/>
<path d="M235.213 19.4644C235.213 25.5244 239.473 28.1044 245.833 28.1044C252.193 28.1044 256.453 25.5244 256.453 19.4644C256.453 13.4044 252.193 10.8244 245.833 10.8244C239.473 10.8244 235.213 13.4044 235.213 19.4644ZM240.673 19.4644C240.673 16.3144 242.563 14.5444 245.833 14.5444C249.103 14.5444 250.993 16.3144 250.993 19.4644C250.993 22.6144 249.103 24.3844 245.833 24.3844C242.563 24.3844 240.673 22.6144 240.673 19.4644Z" fill="white"/>
<path d="M284.333 27.5044H289.613V16.6144C289.613 12.3844 286.463 11.0044 283.223 11.0044C280.283 11.0044 278.063 12.1144 276.593 14.0344C275.783 12.2044 274.103 11.0044 271.043 11.0044C267.953 11.0044 265.433 12.4144 264.473 13.7644H264.413V11.4244H259.313V27.5044H264.593V18.8044C264.593 16.2844 266.393 15.0844 268.643 15.0844C270.113 15.0844 271.823 15.6844 271.823 17.8444V27.5044H277.103V18.8044C277.103 16.2844 278.903 15.0844 281.093 15.0844C282.623 15.0844 284.333 15.6844 284.333 17.8444V27.5044Z" fill="white"/>
<path d="M303.203 10.7644H318.323C313.253 15.2644 307.733 20.5444 306.683 27.5044H313.763C315.053 20.7844 319.793 15.8044 324.323 11.2744V6.68438H303.203V10.7644Z" fill="white"/>
<path d="M332.176 19.5544C332.176 16.4944 334.486 14.9044 337.126 14.9044C339.796 14.9044 342.106 16.4944 342.106 19.5544C342.106 22.6144 339.796 24.2044 337.126 24.2044C334.486 24.2044 332.176 22.6144 332.176 19.5544ZM327.076 33.4744H332.356V25.7044H332.416C333.436 27.1444 335.626 28.1044 338.596 28.1044C343.666 28.1044 347.566 24.6844 347.566 19.4644C347.566 13.8244 343.456 11.0044 338.236 11.0044C336.016 11.0044 334.246 11.4544 332.236 13.6144H332.176V11.4244H327.076V33.4744Z" fill="white"/>
<path d="M375.446 27.5044H380.726V16.6144C380.726 12.3844 377.576 11.0044 374.336 11.0044C371.396 11.0044 369.176 12.1144 367.706 14.0344C366.896 12.2044 365.216 11.0044 362.156 11.0044C359.066 11.0044 356.546 12.4144 355.586 13.7644H355.526V11.4244H350.426V27.5044H355.706V18.8044C355.706 16.2844 357.506 15.0844 359.756 15.0844C361.226 15.0844 362.936 15.6844 362.936 17.8444V27.5044H368.216V18.8044C368.216 16.2844 370.016 15.0844 372.206 15.0844C373.736 15.0844 375.446 15.6844 375.446 17.8444V27.5044Z" fill="white"/>
<path d="M397.136 11.4244H393.806V14.9644H397.136V23.0944C397.136 26.0044 397.616 27.8644 402.626 27.8644C403.796 27.8644 405.776 27.6844 406.766 27.5644V24.0244C405.926 24.0844 405.116 24.1444 404.186 24.1444C402.806 24.1444 402.416 23.7244 402.416 22.4644V14.9644H406.676V11.4244H402.416V6.44438H397.136V11.4244Z" fill="white"/>
<path d="M408.006 19.4644C408.006 25.5244 412.266 28.1044 418.626 28.1044C424.986 28.1044 429.246 25.5244 429.246 19.4644C429.246 13.4044 424.986 10.8244 418.626 10.8244C412.266 10.8244 408.006 13.4044 408.006 19.4644ZM413.466 19.4644C413.466 16.3144 415.356 14.5444 418.626 14.5444C421.896 14.5444 423.786 16.3144 423.786 19.4644C423.786 22.6144 421.896 24.3844 418.626 24.3844C415.356 24.3844 413.466 22.6144 413.466 19.4644Z" fill="white"/>
<path d="M448.819 27.5044H454.279V6.68438H450.049C448.849 10.0444 447.139 10.4044 442.519 10.4944V14.2144H448.819V27.5044Z" fill="white"/>
<path d="M464.979 17.0944C464.979 13.3444 466.329 10.0444 470.319 10.0444C474.309 10.0444 475.659 13.3444 475.659 17.0944C475.659 20.8444 474.309 24.1444 470.319 24.1444C466.329 24.1444 464.979 20.8444 464.979 17.0944ZM459.339 17.0944C459.339 24.0844 463.299 28.0444 470.319 28.0444C477.639 28.0444 481.299 23.6644 481.299 17.0944C481.299 10.1044 477.339 6.14438 470.319 6.14438C463.299 6.14438 459.339 10.1044 459.339 17.0944Z" fill="white"/>
<path d="M489.471 19.5544C489.471 16.4944 491.781 14.9044 494.421 14.9044C497.091 14.9044 499.401 16.4944 499.401 19.5544C499.401 22.6144 497.091 24.2044 494.421 24.2044C491.781 24.2044 489.471 22.6144 489.471 19.5544ZM484.371 33.4744H489.651V25.7044H489.711C490.731 27.1444 492.921 28.1044 495.891 28.1044C500.961 28.1044 504.861 24.6844 504.861 19.4644C504.861 13.8244 500.751 11.0044 495.531 11.0044C493.311 11.0044 491.541 11.4544 489.531 13.6144H489.471V11.4244H484.371V33.4744Z" fill="white"/>
<path d="M532.741 27.5044H538.021V16.6144C538.021 12.3844 534.871 11.0044 531.631 11.0044C528.691 11.0044 526.471 12.1144 525.001 14.0344C524.191 12.2044 522.511 11.0044 519.451 11.0044C516.361 11.0044 513.841 12.4144 512.881 13.7644H512.821V11.4244H507.721V27.5044H513.001V18.8044C513.001 16.2844 514.801 15.0844 517.051 15.0844C518.521 15.0844 520.231 15.6844 520.231 17.8444V27.5044H525.511V18.8044C525.511 16.2844 527.311 15.0844 529.501 15.0844C531.031 15.0844 532.741 15.6844 532.741 17.8444V27.5044Z" fill="white"/>
</svg>
